<?xml version="1.0" standalone="no"?>
<!DOCTYPE svg PUBLIC "-//W3C//DTD SVG 20010904//EN"
 "http://www.w3.org/TR/2001/REC-SVG-20010904/DTD/svg10.dtd">
<svg version="1.0" xmlns="http://www.w3.org/2000/svg"
 width="500.000000pt" height="500.000000pt" viewBox="0 0 500.000000 500.000000"
 preserveAspectRatio="xMidYMid meet">

<g transform="translate(0.000000,500.000000) scale(0.100000,-0.100000)"
fill="#000000" stroke="none">
<path d="M2297 4349 c-321 -37 -658 -170 -910 -360 -123 -92 -310 -282 -394
-399 -307 -429 -418 -953 -312 -1474 94 -465 378 -886 780 -1155 484 -326
1068 -406 1634 -225 115 37 366 164 467 237 268 192 459 414 597 692 118 235
171 429 193 693 28 339 -47 705 -203 1001 -185 348 -473 632 -815 804 -307
153 -705 225 -1037 186z m421 -20 c53 -5 138 -19 187 -31 715 -165 1256 -722
1406 -1448 21 -103 24 -140 24 -355 -1 -209 -4 -253 -23 -345 -80 -375 -248
-687 -511 -951 -266 -265 -573 -431 -946 -510 -98 -21 -136 -24 -355 -24 -219
0 -257 2 -355 23 -284 61 -533 174 -756 343 -105 79 -287 261 -361 359 -167
226 -285 488 -340 762 -20 98 -23 143 -23 348 0 209 3 248 24 350 77 374 241
680 511 951 243 245 521 402 863 490 178 45 447 61 655 38z"/>
<path d="M2235 4065 c-297 -43 -588 -179 -819 -380 -187 -164 -324 -368 -401
-598 -53 -157 -68 -265 -63 -447 5 -154 28 -300 49 -300 6 0 8 3 6 8 -3 4 2
13 10 21 13 11 14 11 12 -5 -1 -11 3 -30 9 -44 8 -19 11 -21 11 -7 1 12 5 16
14 10 6 -4 4 6 -7 21 -10 16 -13 25 -6 21 9 -5 10 -2 6 12 -36 113 -45 326
-21 469 31 176 97 353 141 373 13 6 24 7 24 3 0 -4 271 -6 603 -4 669 3 637 3
690 0 21 -1 42 3 46 10 5 8 21 7 64 -4 32 -8 63 -12 69 -8 8 5 962 6 1121 0
21 0 42 -7 47 -16 21 -32 8 8 -18 60 -153 299 -466 554 -822 668 -107 34 -231
62 -305 69 -27 2 -52 7 -55 10 -3 3 14 3 36 0 23 -2 48 -1 55 4 10 6 1 9 -26
10 -34 2 -36 3 -10 6 46 7 50 19 12 37 -29 13 -67 16 -209 15 -95 -1 -213 -7
-263 -14z"/>
<path d="M2728 4063 c7 -3 16 -2 19 1 4 3 -2 6 -13 5 -11 0 -14 -3 -6 -6z"/>
<path d="M2785 4050 l-20 -9 20 -1 c17 -2 16 -3 -5 -11 l-25 -8 25 2 c14 1 24
6 22 12 -2 5 5 12 15 16 12 5 13 8 3 8 -8 0 -24 -4 -35 -9z"/>
<path d="M2758 4003 c7 -3 16 -2 19 1 4 3 -2 6 -13 5 -11 0 -14 -3 -6 -6z"/>
<path d="M4003 2938 c6 -17 -15 -43 -26 -31 -4 3 -7 1 -7 -6 0 -8 7 -10 19 -6
22 7 49 -29 31 -40 -5 -3 -10 2 -11 12 -1 13 -3 11 -9 -7 -8 -24 -8 -24 -9 -2
-1 12 -4 22 -8 22 -5 0 -7 -66 -5 -146 2 -99 -2 -179 -13 -248 -85 -534 -508
-965 -1086 -1107 -100 -24 -242 -43 -389 -51 -19 -1 -43 -5 -52 -10 -10 -5
-18 -3 -20 4 -3 8 -9 8 -24 0 -14 -8 -15 -12 -4 -12 10 -1 9 -4 -5 -11 -17 -8
-15 -8 8 -4 27 5 39 -9 15 -18 -37 -13 102 -18 216 -8 253 23 439 75 647 183
491 253 791 730 776 1233 -2 72 -7 150 -11 175 -4 25 -8 50 -8 55 -1 6 -8 17
-17 25 -13 13 -14 12 -8 -2z m-6 -130 c-3 -8 -6 -5 -6 6 -1 11 2 17 5 13 3 -3
4 -12 1 -19z m-1490 -1534 c-3 -3 -12 -4 -19 -1 -8 3 -5 6 6 6 11 1 17 -2 13
-5z"/>
<path d="M1765 2826 c-92 -19 -173 -62 -241 -131 -98 -98 -144 -206 -144 -346
0 -190 100 -348 274 -434 72 -36 87 -40 178 -43 122 -5 203 14 286 67 31 21
130 111 219 202 l163 164 162 -163 c215 -218 270 -253 409 -270 143 -17 286
25 388 114 99 86 161 226 161 364 0 368 -386 600 -713 428 -47 -24 -105 -74
-235 -204 l-172 -171 -168 167 c-186 185 -250 230 -369 255 -80 17 -117 17
-198 1z m280 -105 c59 -29 97 -61 240 -203 l170 -168 -173 -171 c-145 -143
-183 -175 -240 -202 -63 -30 -73 -32 -182 -32 -107 0 -119 2 -175 29 -77 38
-163 124 -200 200 -24 50 -30 76 -33 152 -6 136 31 235 120 320 93 89 163 114
303 111 92 -2 107 -5 170 -36z m1265 7 c110 -54 182 -135 220 -249 31 -90 25
-219 -14 -300 -51 -108 -148 -193 -256 -225 -37 -11 -82 -15 -144 -12 -148 5
-190 30 -399 238 l-172 170 170 169 c225 222 261 242 435 238 91 -2 112 -6
160 -29z"/>
<path d="M1007 2324 c-11 -11 -8 -26 3 -19 6 3 10 1 10 -6 0 -7 3 -10 6 -6 3
3 2 13 -3 22 -5 8 -12 12 -16 9z"/>
<path d="M1021 2254 c0 -11 3 -14 6 -6 3 7 2 16 -1 19 -3 4 -6 -2 -5 -13z"/>
<path d="M2496 1639 c-80 -22 -123 -132 -75 -193 17 -22 29 -26 68 -26 34 0
56 6 75 21 33 26 36 54 4 44 -53 -17 -85 -17 -101 0 -25 25 -21 31 18 27 77
-9 136 50 102 102 -18 27 -50 36 -91 25z m44 -64 c0 -18 -36 -34 -62 -27 -21
5 -23 13 -6 30 18 18 68 15 68 -3z"/>
<path d="M2310 1283 c0 -5 11 -8 25 -8 14 0 25 3 25 8 0 4 -11 7 -25 7 -14 0
-25 -3 -25 -7z"/>
<path d="M2154 1202 c-37 -25 -46 -110 -14 -142 27 -27 52 -25 80 5 27 29 20
43 -13 28 -14 -7 -30 -8 -38 -3 -10 7 -7 11 13 19 25 10 48 38 48 60 0 28 -50
51 -76 33z m36 -41 c0 -12 -20 -25 -27 -18 -7 7 6 27 18 27 5 0 9 -4 9 -9z"/>
<path d="M2416 1191 c-10 -11 -20 -37 -23 -58 -4 -32 0 -45 20 -68 22 -26 28
-28 52 -20 30 11 54 40 42 51 -4 4 -18 2 -32 -4 -36 -16 -39 1 -5 27 31 23 39
58 18 79 -18 18 -53 14 -72 -7z m52 -33 c-3 -7 -12 -14 -21 -16 -12 -2 -15 1
-11 12 7 19 38 22 32 4z"/>
<path d="M2250 1163 c1 -53 35 -125 57 -121 19 3 73 99 73 130 0 32 -28 19
-46 -22 -10 -22 -20 -40 -24 -40 -3 0 -12 19 -20 42 -20 56 -40 62 -40 11z"/>
<path d="M2534 1186 c-3 -7 -4 -42 -2 -77 2 -49 7 -64 18 -64 9 0 16 11 18 30
6 66 11 75 43 75 24 0 30 4 27 18 -3 13 -13 17 -41 16 -20 -1 -37 3 -37 7 0
14 -20 10 -26 -5z"/>
<path d="M2662 1188 c-19 -19 -15 -41 6 -33 27 11 45 11 49 -1 2 -6 -10 -17
-27 -24 -35 -14 -53 -41 -44 -64 7 -18 47 -31 64 -21 6 4 17 2 24 -4 35 -29
48 80 16 139 -12 23 -68 28 -88 8z m68 -88 c0 -12 -28 -25 -36 -17 -9 9 6 27
22 27 8 0 14 -5 14 -10z"/>
</g>
</svg>
